# xmcd
#
# Track frame offsets:
#	151
#	24939
#	51555
#	74217
#	100087
#	126610
#	146823
#	186545
#	188139
#
# Disc length: 2703 seconds
#
# Revision: 0
# Processed by: cddbd v1.5PL3 Copyright (c) Steve Scherf et al.
# Submitted via: dBpowerAMP V4.0
#
DISCID=950a8d09
DTITLE=Free - Au Golf Drouot
DYEAR=1969
DGENRE=Blues
TTITLE0=Born Under A Bad Sign
TTITLE1=Mean 'Ole World
TTITLE2=Sugar For Mr Morrison
TTITLE3=Free Me
TTITLE4=Let Me Love You
TTITLE5=Over The Green Hills
TTITLE6=Hoochie Coochie Man
TTITLE7=Intro
TTITLE8=I'm A Mover
EXTD=Recorded live in Paris Au Golf Drouot, April 1969
EXTT0=
EXTT1=
EXTT2=
EXTT3=
EXTT4=
EXTT5=
EXTT6=
EXTT7=
EXTT8=
PLAYORDER=
